<?xml version="1.0" standalone="no"?>
<!DOCTYPE svg PUBLIC "-//W3C//DTD SVG 20010904//EN"
 "http://www.w3.org/TR/2001/REC-SVG-20010904/DTD/svg10.dtd">
<svg version="1.0" xmlns="http://www.w3.org/2000/svg"
 width="350.000000pt" height="350.000000pt" viewBox="0 0 350.000000 350.000000"
 preserveAspectRatio="xMidYMid meet">
<metadata>
Created by potrace 1.11, written by Peter Selinger 2001-2013
</metadata>
<g transform="translate(0.000000,350.000000) scale(0.100000,-0.100000)"
fill="#000000" stroke="none">
<path d="M897 2783 c-4 -3 -7 -631 -7 -1395 l0 -1388 326 0 327 0 -42 45 c-56
61 -144 198 -186 288 -85 189 -124 381 -132 665 l-6 192 315 0 315 0 6 -192
c6 -220 22 -300 84 -427 28 -58 58 -97 123 -161 129 -129 264 -191 457 -209
416 -38 727 166 826 539 l22 85 0 980 0 980 -1211 3 c-666 1 -1214 -1 -1217
-5z m455 -625 c3 -363 4 -374 25 -414 29 -55 93 -109 148 -124 68 -19 182 -10
240 21 60 30 108 96 124 169 7 31 11 183 11 385 l0 335 80 0 80 0 0 -358 c0
-389 -4 -427 -57 -524 -35 -64 -90 -113 -172 -152 -65 -30 -69 -31 -212 -31
l-145 0 -76 38 c-85 42 -130 86 -170 169 -42 86 -48 147 -48 515 l0 343 85 0
84 0 3 -372z m1198 182 c82 -125 131 -190 142 -190 12 0 60 63 145 190 l126
190 89 0 89 0 -19 -27 c-153 -221 -322 -474 -322 -482 0 -5 69 -108 153 -228
84 -120 167 -239 185 -265 l33 -48 -93 0 -93 0 -145 210 c-89 130 -150 210
-161 210 -10 0 -67 -78 -155 -210 l-139 -210 -88 0 c-68 0 -86 3 -81 13 4 6
88 130 186 275 l178 262 -53 78 c-30 42 -106 155 -170 250 l-117 172 92 0 93
0 125 -190z"/>
</g>
</svg>
