<?xml version="1.0" encoding="utf-8"?>
<!-- Generator: Adobe Illustrator 15.1.0, SVG Export Plug-In . SVG Version: 6.00 Build 0)  -->
<!DOCTYPE svg PUBLIC "-//W3C//DTD SVG 1.1//EN" "http://www.w3.org/Graphics/SVG/1.1/DTD/svg11.dtd">
<svg version="1.1" xmlns="http://www.w3.org/2000/svg" xmlns:xlink="http://www.w3.org/1999/xlink" x="0px" y="0px"
	 width="1116.513px" height="1116.51px" viewBox="0 0 1116.513 1116.51" enable-background="new 0 0 1116.513 1116.51"
	 xml:space="preserve">
<g id="Layer_1">
	<rect fill="#222223" width="1116.513" height="1116.51"/>
</g>
<g id="Layer_2">
	<g id="floor">
		<g>
			<g enable-background="new    ">
				<defs>
					<polygon id="SVGID_1_" enable-background="new    " points="521.047,1037.22 43.23,799.802 569.135,531.84 1046.952,769.258 
											"/>
				</defs>
				<clipPath id="SVGID_2_">
					<use xlink:href="#SVGID_1_"  overflow="visible"/>
				</clipPath>
				<g clip-path="url(#SVGID_2_)">
					<g>
						<g>
							<g>
								<path fill="#DADCE5" d="M306.183,665.822c-145.229,73.997-155.993,187.127-24.044,252.689
									c131.948,65.563,356.633,58.725,501.86-15.272s155.992-187.127,24.044-252.689S451.411,591.825,306.183,665.822"/>
							</g>
						</g>
					</g>
				</g>
			</g>
		</g>
	</g>
	<g id="paving">
		<g enable-background="new    ">
			<defs>
				<polygon id="SVGID_3_" enable-background="new    " points="547.452,870.972 299.193,747.853 569.061,611.607 817.321,734.726 
									"/>
			</defs>
			<clipPath id="SVGID_4_">
				<use xlink:href="#SVGID_3_"  overflow="visible"/>
			</clipPath>
			<g clip-path="url(#SVGID_4_)">
				<path fill="#C3B0C6" d="M457.519,725.346l-19.55,9.87c-7.589,3.831-8.092,9.739-1.13,13.192l40.84,20.253
					c6.961,3.453,18.763,3.148,26.352-0.683l29.245-14.765c7.596-3.835,8.099-9.743,1.138-13.195l-50.535-15.358
					C476.916,721.208,465.108,721.515,457.519,725.346"/>
				<path fill="#C3B0C6" d="M314.881,739.932c-7.589,3.832-8.104,9.739-1.137,13.195l20.482,12.1
					c6.961,3.452,18.77,3.145,26.358-0.688l94.468-47.693c7.596-3.835,8.099-9.742,1.138-13.194l-20.272-9.087
					c-6.968-3.455-18.77-3.145-26.359,0.688L314.881,739.932"/>
				<path fill="#C3B0C6" d="M402.455,759.159l-19.854,10.023c-7.039,3.555-7.505,9.029-1.047,12.232
					c6.457,3.202,17.389,2.917,24.428-0.637l23.244-11.735c7.041-3.554,7.519-9.03,1.062-12.232
					C423.83,753.608,409.495,755.605,402.455,759.159"/>
				<path fill="#C3B0C6" d="M442.702,774.903l-21.608,10.91c-7.59,3.831-3.734,7.533,3.227,10.985l2.14,1.061
					c6.967,3.455,18.763,3.147,26.352-0.684l21.609-10.909c7.589-3.832,8.104-9.74,1.137-13.195l-2.139-1.061
					C466.457,768.558,450.291,771.072,442.702,774.903"/>
				<path fill="#C3B0C6" d="M668.442,731.093c-7.596,3.835-8.099,9.742-1.138,13.194l20.133,7.559
					c6.962,3.452,18.769,3.145,26.358-0.687l11.787-5.951c7.59-3.832,8.1-9.743,1.138-13.195l-15.484-7.68
					c-6.961-3.452-18.77-3.145-26.359,0.688L668.442,731.093"/>
				<path fill="#C3B0C6" d="M724.845,702.618l-8.152,4.115c-7.589,3.832-8.099,9.743-1.138,13.195l45.939,25.692
					c6.962,3.452,18.764,3.148,26.359-0.687l11.06-5.584c7.589-3.831,8.092-9.739,1.13-13.191l-48.846-24.225
					C744.236,698.482,732.434,698.786,724.845,702.618"/>
				<path fill="#C3B0C6" d="M727.484,752.706l-5.238,2.645c-7.59,3.832-8.104,9.739-1.137,13.194l2.138,1.061
					c6.962,3.453,18.764,3.143,26.354-0.689l5.238-2.645c7.596-3.835,12.348-10.544,5.381-14l-2.133-1.058
					C751.119,747.758,735.08,748.871,727.484,752.706"/>
			</g>
		</g>
	</g>
	<g id="shadow" opacity="0.2">
		<g>
			<g enable-background="new    ">
				<defs>
					<polygon id="SVGID_5_" enable-background="new    " points="523.114,879.343 294.662,765.83 546.099,637.715 774.552,751.229 
											"/>
				</defs>
				<clipPath id="SVGID_6_">
					<use xlink:href="#SVGID_5_"  overflow="visible"/>
				</clipPath>
				<g clip-path="url(#SVGID_6_)">
					<g>
						<g>
							<g>
								<path d="M420.383,701.771c-69.439,35.381-74.579,89.471-11.495,120.815c63.083,31.345,170.508,28.079,239.947-7.302
									c69.434-35.378,74.574-89.468,11.49-120.813S489.817,666.393,420.383,701.771"/>
							</g>
						</g>
					</g>
				</g>
			</g>
		</g>
	</g>
	<g id="grass-f">
		<path fill="#74826C" d="M490.792,873.687c0,0-13.202-51.852,0-117.959l-46.916,117.959H490.792z"/>
		<path fill="#74826C" d="M522.767,877.076c0,0-11.227-64.63,4.475-143.245L459.76,874.107L522.767,877.076z"/>
		<path fill="#8F9B81" d="M501.077,912.369c0,0-19.081-48.298-3.378-126.913l-41.976,111.579L501.077,912.369z"/>
		<path fill="#8F9B81" d="M483.62,881.096c0,0-31.644-34.031-15.941-112.643l-47.023,128.581L483.62,881.096z"/>
	</g>
	<g id="grass-r">
		<path fill="#74826C" d="M754.861,737.286c0,0-18.55-72.851,0-165.727l-65.915,165.727H754.861z"/>
		<path fill="#8F9B81" d="M692.174,747.691c0,0-44.457-47.809-22.396-158.256"/>
		<path fill="#74826C" d="M731.369,705.073c0,0-22.062-80.171,0-182.383l-78.387,182.383H731.369z"/>
		<path fill="#74826C" d="M754.864,714.914c0,0-31.217-12.879-11.818-131.679L685.94,714.914H754.864z"/>
		<path fill="#8F9B81" d="M731.369,771.91c0,0-41.473-24.927-19.412-135.378l-58.975,156.766L731.369,771.91z"/>
		<path fill="#8F9B81" d="M708.822,715.478c0,0-44.46-47.809-22.399-158.259l-33.44,173.303L708.822,715.478z"/>
		<path fill="#8F9B81" d="M756.185,739.708c0,0-9.884-106.566,12.175-217.019l-73.985,249.22L756.185,739.708z"/>
	</g>
	<g id="pebbles-r">
		<path fill="#C3B0C6" d="M710.67,846.481c0,18.263-28.071,33.068-62.698,33.068s-62.698-14.806-62.698-33.068
			s33.432-47.301,68.059-47.301S710.67,828.218,710.67,846.481z"/>
		<path fill="#C3B0C6" d="M734.371,867.794c0,8.147-10.611,14.753-23.7,14.753s-23.7-6.605-23.7-14.753s12.638-21.103,25.727-21.103
			S734.371,859.647,734.371,867.794z"/>
		<ellipse opacity="0.3" fill="#FFFFFF" cx="624.994" cy="825.911" rx="17.802" ry="10.444"/>
	</g>
	<g id="grass-l">
		<path fill="#74826C" d="M365.397,738.921c0,0-15.361-60.329,0-137.249l-54.588,137.249H365.397z"/>
		<path fill="#8F9B81" d="M357.052,747.541c0,0-36.818-39.594-18.549-131.066l-46.367,149.093L357.052,747.541z"/>
		<path fill="#74826C" d="M335.613,712.243c0,0-15.362-60.331,0-137.248l-54.589,137.248H335.613z"/>
		<path fill="#74826C" d="M373.235,712.73c0,0-29.398-9.916-11.128-101.389L308.319,712.73H373.235z"/>
		<path fill="#8F9B81" d="M359.725,739.408c0,0-34.345-38.355-16.076-129.826l-48.84,129.826H359.725z"/>
		<path fill="#8F9B81" d="M327.268,720.86c0,0-36.819-39.593-18.549-131.064l-27.695,143.526L327.268,720.86z"/>
		<path fill="#8F9B81" d="M378.457,740.927c0,0-8.186-88.254,10.083-179.728l-61.271,206.396L378.457,740.927z"/>
	</g>
	<g id="pebbles-l">
		<path fill="#C3B0C6" d="M344.5,828.294c0,14.746-22.665,26.7-50.624,26.7c-27.958,0-50.623-11.954-50.623-26.7
			c0-14.745,47.228-49.458,65.239-28.074C324.346,819.042,344.5,813.549,344.5,828.294z"/>
		<ellipse opacity="0.3" fill="#FFFFFF" cx="278.941" cy="812.655" rx="17.802" ry="10.444"/>
		<path fill="#C3B0C6" d="M359.403,796.088c0,6.799-6.504,21.989-24.09,14.576c-10.064-4.243-17.975-10.427-17.975-17.226
			c0-6.8,10.109-14.772,21.032-14.772S359.403,789.289,359.403,796.088z"/>
		<path fill="#C3B0C6" d="M278.941,872.605c0,6.799-8.855,12.312-19.778,12.312c-10.923,0-19.779-5.513-19.779-12.312
			c0-6.8,10.547-17.61,21.47-17.61S278.941,865.805,278.941,872.605z"/>
	</g>
	<g id="ghost" opacity="0.9">
		<g id="ghost-body">
			<linearGradient id="SVGID_7_" gradientUnits="userSpaceOnUse" x1="363.353" y1="191.7598" x2="697.8998" y2="669.5422">
				<stop  offset="0" style="stop-color:#75CCF4"/>
				<stop  offset="0.2657" style="stop-color:#84C6DB"/>
				<stop  offset="0.5517" style="stop-color:#8FC1C6"/>
				<stop  offset="0.8058" style="stop-color:#95BEB9"/>
				<stop  offset="1" style="stop-color:#97BCB4"/>
			</linearGradient>
			<path fill="url(#SVGID_7_)" d="M583.559,605.491c16.624-3.379,31.737-8.779,44.638-16.457l76.958,75.428
				c0,0-18.25-81.396-18.594-156.369l-12.945-278.204h-0.274c-4.434-71.886-64.129-128.818-137.131-128.818
				c-73.003,0-132.696,56.933-137.132,128.818h-0.274l-11.276,268.233c0,55.822-21.469,137.219-21.469,137.219l62.823-52.137
				c11.315,3.518,16.435,6.658,21.894,9.439c-0.707,51.582-5.275,79.332-5.275,79.332l48.049-65.598
				c13.432,2.389,27.768,3.525,42.661,3.525c0.903,0,1.804-0.01,2.703-0.018l47.75,84.09
				C586.664,693.975,584.135,653.354,583.559,605.491z"/>
		</g>
		
			<radialGradient id="eye-r_1_" cx="599.7642" cy="272.2944" r="50.5718" fx="616.8469" fy="268.3586" gradientTransform="matrix(1 0 0 2 0 -272.2944)" gradientUnits="userSpaceOnUse">
			<stop  offset="0" style="stop-color:#008C8C"/>
			<stop  offset="0.3068" style="stop-color:#0C8D8E"/>
			<stop  offset="0.5844" style="stop-color:#279398"/>
			<stop  offset="0.8497" style="stop-color:#429CA7"/>
			<stop  offset="1" style="stop-color:#53A4B3"/>
		</radialGradient>
		<path id="eye-r" fill="url(#eye-r_1_)" stroke="#FFFFFF" stroke-width="5" stroke-miterlimit="10" stroke-opacity="0.3" d="
			M624.457,328.649c0,45.651-17.543,82.658-39.183,82.658s-39.183-41.301-39.183-86.952s17.543-78.365,39.183-78.365
			S624.457,282.998,624.457,328.649z"/>
		
			<radialGradient id="eye-l_1_" cx="476.1626" cy="264.2412" r="61.0485" gradientTransform="matrix(0.8618 -0.5072 1.0144 1.7237 -202.2493 50.2743)" gradientUnits="userSpaceOnUse">
			<stop  offset="0" style="stop-color:#008C8C"/>
			<stop  offset="0.3068" style="stop-color:#0C8D8E"/>
			<stop  offset="0.5844" style="stop-color:#279398"/>
			<stop  offset="0.8497" style="stop-color:#429CA7"/>
			<stop  offset="1" style="stop-color:#53A4B3"/>
		</radialGradient>
		<path id="eye-l" fill="url(#eye-l_1_)" stroke="#FFFFFF" stroke-width="5" stroke-miterlimit="10" stroke-opacity="0.3" d="
			M473.948,293.224c0,45.651-15.14,82.658-33.814,82.658s-33.814-37.007-33.814-82.658c0-45.651,15.14-76.218,33.814-76.218
			S473.948,247.573,473.948,293.224z"/>
		
			<radialGradient id="mouth_1_" cx="509.5776" cy="422.0845" r="60.0013" gradientTransform="matrix(0.9531 -0.3026 0.3929 1.2379 -141.9722 53.7821)" gradientUnits="userSpaceOnUse">
			<stop  offset="0" style="stop-color:#008C8C"/>
			<stop  offset="0.3068" style="stop-color:#0C8D8E"/>
			<stop  offset="0.5844" style="stop-color:#279398"/>
			<stop  offset="0.8497" style="stop-color:#429CA7"/>
			<stop  offset="1" style="stop-color:#53A4B3"/>
		</radialGradient>
		<path id="mouth" fill="url(#mouth_1_)" stroke="#FFFFFF" stroke-width="5" stroke-miterlimit="10" stroke-opacity="0.33" d="
			M435.309,492.188c-1.413-5.102-2.275-10.273-2.795-15.498c-0.254-2.611-0.441-5.24-0.5-7.875c-0.038-1.317-0.067-2.641-0.07-3.967
			c0.019-1.322,0.052-2.647,0.102-3.978c0.051-1.329,0.118-2.663,0.203-4.002c0.103-1.333,0.24-2.667,0.388-4.006
			c0.313-2.674,0.644-5.384,1.198-8.067c0.527-2.691,1.147-5.397,1.891-8.114c0.783-2.7,1.703-5.401,2.762-8.11
			c0.533-1.353,1.102-2.708,1.718-4.058c0.638-1.338,1.317-2.674,2.046-4.003c1.455-2.66,3.113-5.297,5.007-7.874
			c3.851-5.07,8.741-9.935,14.745-13.686c5.996-3.702,12.959-6.324,19.91-7.291c1.736-0.248,3.471-0.428,5.186-0.519l1.285-0.058
			l1.375-0.033l0.466-0.012l0.25-0.005l0.403,0.006l1.61,0.04c3.727,0.128,7.537,0.743,11.214,1.857
			c3.68,1.09,7.233,2.614,10.482,4.472c3.259,1.848,6.16,4.101,8.767,6.445c2.605,2.36,4.92,4.849,6.951,7.421
			c2.001,2.601,3.747,5.25,5.313,7.909c6.204,10.679,9.379,21.568,11.324,32.262c1.933,10.701,2.377,21.325,1.79,31.811
			c-0.118,2.617-0.413,5.241-0.667,7.841c-0.315,2.609-0.669,5.205-1.126,7.793c-0.867,5.174-2.137,10.313-3.893,15.393
			l-1.931,0.039c-0.498-9.85-2.654-19.721-4.222-29.468c-1.54-9.757-3.592-19.437-6.455-28.842
			c-2.859-9.383-6.43-18.613-11.638-26.786c-2.606-4.065-5.625-7.858-9.19-10.988c-3.556-3.127-7.646-5.595-12.113-6.971
			c-4.457-1.405-9.243-1.642-13.974-1.093c-4.708,0.539-9.29,1.979-13.417,4.294c-4.138,2.3-7.813,5.43-10.971,9.038
			c-3.186,3.593-5.87,7.659-8.172,11.941c-4.6,8.593-7.658,18.015-9.957,27.575c-2.271,9.572-2.78,19.405-3.363,29.224
			L435.309,492.188z"/>
		<circle opacity="0.22" fill="#FFFFFF" cx="460.701" cy="170.737" r="28.757"/>
		<circle opacity="0.22" fill="#FFFFFF" cx="509.661" cy="141.98" r="18.517"/>
		<circle id="pupil-r" opacity="0.6" fill="#FFFFFF" cx="582.107" cy="335.43" r="15.188"/>
		<circle id="pupil-l" opacity="0.6" fill="#FFFFFF" cx="437.214" cy="301.867" r="15.188"/>
	</g>
</g>
</svg>
