<?xml version="1.0" encoding="utf-8"?>
<!-- Generator: Adobe Illustrator 15.1.0, SVG Export Plug-In . SVG Version: 6.00 Build 0)  -->
<!DOCTYPE svg PUBLIC "-//W3C//DTD SVG 1.1//EN" "http://www.w3.org/Graphics/SVG/1.1/DTD/svg11.dtd">
<svg version="1.1" xmlns="http://www.w3.org/2000/svg" xmlns:xlink="http://www.w3.org/1999/xlink" x="0px" y="0px"
	 width="1116.513px" height="1116.51px" viewBox="0 0 1116.513 1116.51" enable-background="new 0 0 1116.513 1116.51"
	 xml:space="preserve">
<g id="Layer_1">
	<rect fill="#222223" width="1116.513" height="1116.51"/>
</g>
<g id="Layer_2">
	<g id="floor">
		<g>
			<g enable-background="new    ">
				<defs>
					<polygon id="SVGID_1_" enable-background="new    " points="521.028,1037.243 43.229,799.803 569.157,531.82 1046.956,769.26 
											"/>
				</defs>
				<clipPath id="SVGID_2_">
					<use xlink:href="#SVGID_1_"  overflow="visible"/>
				</clipPath>
				<g clip-path="url(#SVGID_2_)">
					<g>
						<g>
							<g>
								<path fill="#B6BEA7" d="M306.189,665.814c-145.225,73.998-155.999,187.143-24.064,252.707
									c131.941,65.568,356.638,58.73,501.862-15.268c145.232-74.002,156.006-187.147,24.065-252.715
									C676.118,584.974,451.422,591.811,306.189,665.814"/>
							</g>
						</g>
					</g>
				</g>
			</g>
		</g>
	</g>
	<g id="paving">
		<g enable-background="new    ">
			<defs>
				<polygon id="SVGID_3_" enable-background="new    " points="560.335,866.968 312.077,743.849 581.945,607.603 830.205,730.722 
									"/>
			</defs>
			<clipPath id="SVGID_4_">
				<use xlink:href="#SVGID_3_"  overflow="visible"/>
			</clipPath>
			<g clip-path="url(#SVGID_4_)">
				<path fill="#999CAB" d="M470.403,721.342l-19.55,9.87c-7.589,3.831-8.092,9.739-1.13,13.192l40.84,20.253
					c6.961,3.453,18.763,3.148,26.352-0.683l29.245-14.765c7.596-3.835,8.099-9.743,1.138-13.195l-50.535-15.358
					C489.799,717.204,477.992,717.511,470.403,721.342"/>
				<path fill="#999CAB" d="M327.765,735.928c-7.589,3.832-8.104,9.739-1.138,13.195l20.482,12.1
					c6.961,3.452,18.77,3.145,26.358-0.688l94.468-47.693c7.596-3.835,8.099-9.742,1.138-13.194l-20.272-9.087
					c-6.968-3.455-18.77-3.145-26.359,0.688L327.765,735.928"/>
				<path fill="#999CAB" d="M415.338,755.155l-19.854,10.023c-7.039,3.555-7.505,9.029-1.047,12.232
					c6.457,3.202,17.389,2.917,24.428-0.637l23.244-11.735c7.041-3.554,7.519-9.03,1.062-12.232
					C436.713,749.604,422.378,751.601,415.338,755.155"/>
				<path fill="#999CAB" d="M455.585,770.899l-21.608,10.91c-7.59,3.831-3.734,7.533,3.227,10.985l2.14,1.061
					c6.967,3.455,18.763,3.147,26.352-0.684l21.609-10.909c7.589-3.832,8.104-9.74,1.137-13.195l-2.139-1.061
					C479.34,764.554,463.174,767.068,455.585,770.899"/>
				<path fill="#999CAB" d="M681.326,727.089c-7.596,3.835-8.099,9.742-1.138,13.194l20.133,7.559
					c6.962,3.452,18.769,3.145,26.358-0.687l11.787-5.951c7.59-3.832,8.1-9.743,1.138-13.195l-15.484-7.68
					c-6.961-3.452-18.77-3.145-26.359,0.688L681.326,727.089"/>
				<path fill="#999CAB" d="M737.729,698.614l-8.152,4.115c-7.589,3.832-8.099,9.743-1.138,13.195l45.939,25.692
					c6.962,3.452,18.764,3.148,26.359-0.687l11.06-5.584c7.589-3.831,8.092-9.739,1.13-13.191l-48.846-24.225
					C757.12,694.478,745.318,694.782,737.729,698.614"/>
				<path fill="#999CAB" d="M740.368,748.702l-5.238,2.645c-7.59,3.832-8.104,9.739-1.137,13.194l2.138,1.061
					c6.962,3.453,18.764,3.143,26.354-0.689l5.238-2.645c7.596-3.835,12.348-10.544,5.381-14l-2.133-1.058
					C764.002,743.754,747.963,744.867,740.368,748.702"/>
			</g>
		</g>
	</g>
	<g id="shadow" opacity="0.2">
		<g>
			<g enable-background="new    ">
				<defs>
					<polygon id="SVGID_5_" enable-background="new    " points="523.114,879.343 294.662,765.83 546.099,637.715 774.552,751.229 
											"/>
				</defs>
				<clipPath id="SVGID_6_">
					<use xlink:href="#SVGID_5_"  overflow="visible"/>
				</clipPath>
				<g clip-path="url(#SVGID_6_)">
					<g>
						<g>
							<g>
								<path d="M420.383,701.771c-69.439,35.381-74.579,89.471-11.495,120.815c63.083,31.345,170.508,28.079,239.947-7.302
									c69.434-35.378,74.574-89.468,11.49-120.813S489.817,666.393,420.383,701.771"/>
							</g>
						</g>
					</g>
				</g>
			</g>
		</g>
	</g>
	<g id="grass-f">
		<path fill="#74826C" d="M490.792,873.687c0,0-13.202-51.852,0-117.959l-46.916,117.959H490.792z"/>
		<path fill="#74826C" d="M522.767,877.076c0,0-11.227-64.63,4.475-143.245L459.76,874.107L522.767,877.076z"/>
		<path fill="#8F9B81" d="M501.077,912.369c0,0-19.081-48.298-3.378-126.913l-41.976,111.579L501.077,912.369z"/>
		<path fill="#8F9B81" d="M483.62,881.096c0,0-31.644-34.031-15.941-112.643l-47.023,128.581L483.62,881.096z"/>
	</g>
	<g id="grass-r">
		<path fill="#74826C" d="M754.861,737.286c0,0-18.55-72.851,0-165.727l-65.915,165.727H754.861z"/>
		<path fill="#8F9B81" d="M692.174,747.691c0,0-44.457-47.809-22.396-158.256"/>
		<path fill="#74826C" d="M731.369,705.073c0,0-22.062-80.171,0-182.383l-78.387,182.383H731.369z"/>
		<path fill="#74826C" d="M754.864,714.914c0,0-31.217-12.879-11.818-131.679L685.94,714.914H754.864z"/>
		<path fill="#8F9B81" d="M731.369,771.91c0,0-41.473-24.927-19.412-135.378l-58.975,156.766L731.369,771.91z"/>
		<path fill="#8F9B81" d="M708.822,715.478c0,0-44.46-47.809-22.399-158.259l-33.44,173.303L708.822,715.478z"/>
		<path fill="#8F9B81" d="M756.185,739.708c0,0-9.884-106.566,12.175-217.019l-73.985,249.22L756.185,739.708z"/>
	</g>
	<g id="pebbles-r">
		<path fill="#80828E" d="M710.67,846.481c0,18.263-28.071,33.068-62.698,33.068s-62.698-14.806-62.698-33.068
			s33.432-47.301,68.059-47.301S710.67,828.218,710.67,846.481z"/>
		<path fill="#80828E" d="M734.371,867.794c0,8.147-10.611,14.753-23.7,14.753s-23.7-6.605-23.7-14.753s12.638-21.103,25.727-21.103
			S734.371,859.647,734.371,867.794z"/>
		<ellipse opacity="0.3" fill="#FFFFFF" cx="624.994" cy="825.911" rx="17.802" ry="10.444"/>
	</g>
	<g id="pebbles-l">
		<path fill="#80828E" d="M344.5,828.294c0,14.746-22.665,26.7-50.624,26.7c-27.958,0-50.623-11.954-50.623-26.7
			c0-14.745,47.228-49.458,65.239-28.074C324.346,819.042,344.5,813.549,344.5,828.294z"/>
		<ellipse opacity="0.3" fill="#FFFFFF" cx="278.941" cy="812.655" rx="17.802" ry="10.444"/>
		<path fill="#80828E" d="M359.403,796.088c0,6.799-6.504,21.989-24.09,14.576c-10.064-4.243-17.975-10.427-17.975-17.226
			c0-6.8,10.109-14.772,21.032-14.772S359.403,789.289,359.403,796.088z"/>
		<path fill="#80828E" d="M278.941,872.605c0,6.799-8.855,12.312-19.778,12.312c-10.923,0-19.779-5.513-19.779-12.312
			c0-6.8,10.547-17.61,21.47-17.61S278.941,865.805,278.941,872.605z"/>
	</g>
	<g id="ghost" opacity="0.9">
		<g id="ghost-body">
			<linearGradient id="SVGID_7_" gradientUnits="userSpaceOnUse" x1="363.353" y1="191.7598" x2="697.8998" y2="669.5422">
				<stop  offset="0" style="stop-color:#75CCF4"/>
				<stop  offset="0.2657" style="stop-color:#84C6DB"/>
				<stop  offset="0.5517" style="stop-color:#8FC1C6"/>
				<stop  offset="0.8058" style="stop-color:#95BEB9"/>
				<stop  offset="1" style="stop-color:#97BCB4"/>
			</linearGradient>
			<path fill="url(#SVGID_7_)" d="M583.559,605.491c16.624-3.379,31.737-8.779,44.638-16.457l76.958,75.428
				c0,0-18.25-81.396-18.594-156.369l-12.945-278.204h-0.274c-4.434-71.886-64.129-128.818-137.131-128.818
				c-73.003,0-132.696,56.933-137.132,128.818h-0.274l-11.276,268.233c0,55.822-21.469,137.219-21.469,137.219l62.823-52.137
				c11.315,3.518,16.435,6.658,21.894,9.439c-0.707,51.582-5.275,79.332-5.275,79.332l48.049-65.598
				c13.432,2.389,27.768,3.525,42.661,3.525c0.903,0,1.804-0.01,2.703-0.018l47.75,84.09
				C586.664,693.975,584.135,653.354,583.559,605.491z"/>
		</g>
		<g id="eye-r">
			
				<radialGradient id="SVGID_8_" cx="599.7642" cy="263.8857" r="53.5398" fx="617.8494" fy="259.7189" gradientTransform="matrix(1 0 0 2 0 -263.8857)" gradientUnits="userSpaceOnUse">
				<stop  offset="0" style="stop-color:#007179"/>
				<stop  offset="0.3053" style="stop-color:#0A757D"/>
				<stop  offset="0.5814" style="stop-color:#227F89"/>
				<stop  offset="0.8455" style="stop-color:#3E93A0"/>
				<stop  offset="1" style="stop-color:#53A4B3"/>
			</radialGradient>
			<path fill="url(#SVGID_8_)" d="M624.457,328.649c0,45.651-17.543,82.658-39.183,82.658s-39.183-41.301-39.183-86.952
				s7.543-88.365,29.183-88.365S624.457,282.998,624.457,328.649z"/>
			<g opacity="0.3">
				<path fill="#FFFFFF" d="M575.274,235.99c21.64,0,49.183,47.008,49.183,92.659s-17.543,82.658-39.183,82.658
					s-39.183-41.301-39.183-86.952S553.634,235.99,575.274,235.99 M575.274,230.99c-6.788,0-12.71,3.121-17.604,9.276
					c-4.008,5.042-7.344,12.255-9.917,21.438c-5.507,19.652-6.662,44.917-6.662,62.65c0,22.69,4.339,45.514,11.903,62.618
					c8.367,18.917,19.831,29.334,32.279,29.334c12.506,0,23.95-9.613,32.225-27.068c7.711-16.268,11.958-37.786,11.958-60.59
					c0-22.077-6.23-46.081-17.094-65.856C601.259,242.582,587.741,230.99,575.274,230.99L575.274,230.99z"/>
			</g>
		</g>
		<g id="eye-l">
			
				<radialGradient id="SVGID_9_" cx="476.1626" cy="264.2412" r="61.0485" gradientTransform="matrix(0.8618 -0.5072 1.0144 1.7237 -202.2493 50.2743)" gradientUnits="userSpaceOnUse">
				<stop  offset="0" style="stop-color:#007179"/>
				<stop  offset="0.3053" style="stop-color:#0A757D"/>
				<stop  offset="0.5814" style="stop-color:#227F89"/>
				<stop  offset="0.8455" style="stop-color:#3E93A0"/>
				<stop  offset="1" style="stop-color:#53A4B3"/>
			</radialGradient>
			<path fill="url(#SVGID_9_)" d="M473.948,293.224c0,45.651-15.14,82.658-33.814,82.658s-33.814-37.007-33.814-82.658
				c0-45.651,27.14-76.218,45.814-76.218S473.948,247.573,473.948,293.224z"/>
			<g opacity="0.3">
				<path fill="#FFFFFF" d="M452.133,217.006c18.675,0,21.814,30.566,21.814,76.218c0,45.651-15.14,82.658-33.814,82.658
					s-33.814-37.007-33.814-82.658C406.319,247.573,433.458,217.006,452.133,217.006 M452.133,212.006
					c-11.402,0-24.127,8.661-34.039,23.169c-10.817,15.834-16.775,36.45-16.775,58.049c0,22.713,3.649,44.143,10.276,60.341
					c7.206,17.616,17.342,27.317,28.538,27.317s21.332-9.701,28.538-27.317c6.627-16.199,10.276-37.628,10.276-60.341
					c0-27.405-1.207-44.262-4.035-56.366C471.059,220.368,463.395,212.006,452.133,212.006L452.133,212.006z"/>
			</g>
		</g>
		<g id="mouth">
			
				<radialGradient id="SVGID_10_" cx="536.2446" cy="422.0845" r="80.7342" fx="602.6128" fy="468.0548" gradientTransform="matrix(0.9531 -0.3026 0.3929 1.2379 -140.7223 61.8505)" gradientUnits="userSpaceOnUse">
				<stop  offset="0" style="stop-color:#007179"/>
				<stop  offset="0.3053" style="stop-color:#0A757D"/>
				<stop  offset="0.5814" style="stop-color:#227F89"/>
				<stop  offset="0.8455" style="stop-color:#3E93A0"/>
				<stop  offset="1" style="stop-color:#53A4B3"/>
			</radialGradient>
			<path fill="url(#SVGID_10_)" d="M435.309,492.188c-1.413-5.102-2.275-10.273-2.795-15.498c-0.254-2.611-0.441-5.24-0.5-7.875
				c-0.038-1.317-0.067-2.641-0.07-3.967c0.019-1.322,0.052-2.647,0.102-3.978c0.051-1.329,0.118-2.663,0.203-4.002
				c0.103-1.333,0.24-2.667,0.388-4.006c0.313-2.674,0.644-5.384,1.198-8.067c0.527-2.691,1.147-5.397,1.891-8.114
				c0.783-2.7,1.703-5.401,2.762-8.11c0.533-1.353,1.102-2.708,1.718-4.058c0.638-1.338,1.317-2.674,2.046-4.003
				c1.455-2.66,3.113-5.297,5.007-7.874c3.851-5.07,8.741-9.935,14.745-13.686c5.996-3.702,12.959-6.324,19.91-7.291
				c1.736-0.248,3.471-0.428,5.186-0.519l1.285-0.058l1.375-0.033l0.466-0.012l0.25-0.005l0.403,0.006l1.61,0.04
				c3.727,0.128,7.537,0.743,11.214,1.857c3.68,1.09,7.233,2.614,10.482,4.472c3.259,1.848,6.16,4.101,8.767,6.445
				c2.605,2.36,4.92,4.849,6.951,7.421c2.001,2.601,3.747,5.25,5.313,7.909c6.204,10.679,9.379,21.568,11.324,32.262
				c1.933,10.701,2.377,21.325,1.79,31.811c-0.118,2.617-0.413,5.241-0.667,7.841c-0.315,2.609-0.669,5.205-1.126,7.793
				c-0.867,5.174-2.137,10.313-3.893,15.393l-1.931,0.039c-0.498-9.85-2.654-19.721-4.222-29.468
				c-1.54-9.757-3.592-19.437-6.455-28.842c-2.859-9.383-6.43-18.613-11.638-26.786c-2.606-4.065-5.625-7.858-9.19-10.988
				c-3.556-3.127-7.646-5.595-12.113-6.971c-4.457-1.405-9.243-1.642-13.974-1.093c-4.708,0.539-9.29,1.979-13.417,4.294
				c-4.138,2.3-7.813,5.43-10.971,9.038c-3.186,3.593-5.87,7.659-8.172,11.941c-4.6,8.593-7.658,18.015-9.957,27.575
				c-2.271,9.572-2.78,19.405-3.363,29.224L435.309,492.188z"/>
			<g opacity="0.33">
				<path fill="#FFFFFF" d="M490.474,391.034l0.403,0.006l1.61,0.04c3.727,0.128,7.537,0.743,11.214,1.857
					c3.68,1.09,7.233,2.614,10.482,4.472c3.259,1.848,6.16,4.101,8.767,6.445c2.605,2.36,4.92,4.849,6.951,7.421
					c2.001,2.601,3.747,5.25,5.313,7.909c6.204,10.679,9.379,21.568,11.324,32.262c1.933,10.701,2.377,21.325,1.79,31.811
					c-0.118,2.617-0.413,5.241-0.667,7.841c-0.315,2.609-0.669,5.205-1.126,7.793c-0.867,5.174-2.137,10.313-3.893,15.393
					l-1.931,0.039c-0.498-9.85-2.654-19.721-4.222-29.468c-1.54-9.757-3.592-19.437-6.455-28.842
					c-2.859-9.383-6.43-18.613-11.638-26.786c-2.606-4.065-5.625-7.858-9.19-10.988c-3.556-3.127-7.646-5.595-12.113-6.971
					c-3.015-0.95-6.18-1.366-9.376-1.366c-1.53,0-3.066,0.095-4.598,0.273c-4.708,0.539-9.29,1.979-13.417,4.294
					c-4.138,2.3-7.813,5.43-10.971,9.038c-3.186,3.593-5.87,7.659-8.172,11.941c-4.6,8.593-7.658,18.015-9.957,27.575
					c-2.271,9.572-2.78,19.405-3.363,29.224l-1.932-0.057c-1.413-5.102-2.275-10.273-2.795-15.498
					c-0.254-2.611-0.441-5.24-0.5-7.875c-0.038-1.317-0.067-2.641-0.07-3.967c0.019-1.322,0.052-2.647,0.102-3.978
					c0.051-1.329,0.118-2.663,0.203-4.002c0.103-1.333,0.24-2.667,0.388-4.006c0.313-2.674,0.644-5.384,1.198-8.067
					c0.527-2.691,1.147-5.397,1.891-8.114c0.783-2.7,1.703-5.401,2.762-8.11c0.533-1.353,1.102-2.708,1.718-4.058
					c0.638-1.338,1.317-2.674,2.046-4.003c1.455-2.66,3.113-5.297,5.007-7.874c3.851-5.07,8.741-9.935,14.745-13.686
					c5.996-3.702,12.959-6.324,19.91-7.291c1.736-0.248,3.471-0.428,5.186-0.519l1.285-0.058l1.375-0.033l0.466-0.012
					L490.474,391.034 M490.461,386.033l-0.085,0.002l-0.25,0.005l-0.499,0.013l-1.363,0.033l-0.053,0.001l-0.052,0.002l-1.285,0.058
					c-1.831,0.098-3.725,0.287-5.669,0.564c-7.504,1.043-15.06,3.806-21.83,7.986c-6.031,3.768-11.44,8.781-16.1,14.916
					l-0.024,0.032l-0.023,0.032c-1.946,2.649-3.751,5.487-5.364,8.435c-0.745,1.361-1.477,2.792-2.173,4.252l-0.018,0.038
					l-0.018,0.039c-0.621,1.36-1.216,2.767-1.82,4.3c-1.113,2.848-2.092,5.721-2.912,8.55l-0.011,0.037l-0.011,0.037
					c-0.744,2.721-1.388,5.484-1.969,8.447c-0.577,2.798-0.913,5.492-1.263,8.472c-0.139,1.26-0.292,2.713-0.407,4.204l-0.003,0.034
					l-0.002,0.033c-0.086,1.361-0.156,2.75-0.209,4.128c-0.051,1.339-0.086,2.716-0.104,4.098l-0.001,0.041v0.04
					c0.003,1.195,0.025,2.46,0.072,4.101c0.055,2.477,0.226,5.175,0.521,8.214c0.594,5.976,1.56,11.319,2.953,16.35l0.984,3.555
					l3.688,0.108l1.932,0.057l4.85,0.142l0.288-4.844l0.07-1.195c0.56-9.467,1.088-18.41,3.167-27.17
					c2.531-10.528,5.64-19.158,9.5-26.37c2.281-4.243,4.808-7.941,7.505-10.984c2.967-3.389,6.21-6.067,9.658-7.984
					c3.536-1.982,7.418-3.223,11.557-3.696c1.378-0.16,2.731-0.241,4.029-0.241c2.835,0,5.483,0.382,7.873,1.135
					c3.627,1.118,7.087,3.119,10.314,5.957c2.949,2.589,5.657,5.837,8.283,9.933c4.285,6.726,7.804,14.846,11.063,25.545
					c2.591,8.508,4.651,17.721,6.3,28.163c0.407,2.538,0.857,5.098,1.292,7.572c1.238,7.051,2.52,14.342,2.875,21.369l0.244,4.844
					l4.851-0.098l1.931-0.039l3.485-0.07l1.139-3.295c1.781-5.155,3.16-10.605,4.099-16.2c0.406-2.3,0.776-4.862,1.158-8.019
					l0.007-0.058l0.006-0.057l0.138-1.391c0.218-2.168,0.442-4.409,0.547-6.684c0.649-11.635,0.039-22.413-1.863-32.952
					c-2.416-13.276-6.203-24.042-11.922-33.885c-1.814-3.083-3.665-5.837-5.673-8.446l-0.02-0.025l-0.02-0.025
					c-2.241-2.838-4.771-5.539-7.519-8.027c-3.271-2.942-6.426-5.257-9.657-7.089c-3.609-2.063-7.493-3.721-11.527-4.916
					c-4.021-1.218-8.224-1.914-12.463-2.06L491,386.041l-0.025,0l-0.025,0l-0.403-0.006L490.461,386.033L490.461,386.033z"/>
			</g>
		</g>
		<circle opacity="0.22" fill="#FFFFFF" cx="460.701" cy="170.737" r="28.757"/>
		<circle opacity="0.22" fill="#FFFFFF" cx="509.661" cy="141.98" r="18.517"/>
		<circle id="pupil-r" opacity="0.6" fill="#FFFFFF" cx="581.072" cy="335.466" r="10.152"/>
		<circle id="pupil-l" opacity="0.6" fill="#FFFFFF" cx="434.464" cy="305.617" r="8.438"/>
	</g>
	<g id="grass-l">
		<path fill="#74826C" d="M365.397,738.921c0,0-15.361-60.329,0-137.249l-54.588,137.249H365.397z"/>
		<path fill="#8F9B81" d="M357.052,747.541c0,0-36.818-39.594-18.549-131.066l-46.367,149.093L357.052,747.541z"/>
		<path fill="#74826C" d="M335.613,712.243c0,0-15.362-60.331,0-137.248l-54.589,137.248H335.613z"/>
		<path fill="#74826C" d="M373.235,712.73c0,0-29.398-9.916-11.128-101.389L308.319,712.73H373.235z"/>
		<path fill="#8F9B81" d="M359.725,739.408c0,0-34.345-38.355-16.076-129.826l-48.84,129.826H359.725z"/>
		<path fill="#8F9B81" d="M327.268,720.86c0,0-36.819-39.593-18.549-131.064l-27.695,143.526L327.268,720.86z"/>
		<path fill="#8F9B81" d="M378.457,740.927c0,0-8.186-88.254,10.083-179.728l-61.271,206.396L378.457,740.927z"/>
	</g>
</g>
</svg>
